<?xml version="1.0" encoding="utf-8"?>
<!-- Generator: Adobe Illustrator 19.2.0, SVG Export Plug-In . SVG Version: 6.00 Build 0)  -->
<svg version="1.1" id="Layer_1" xmlns="http://www.w3.org/2000/svg" xmlns:xlink="http://www.w3.org/1999/xlink" x="0px" y="0px"
	 viewBox="0 0 555 34" style="enable-background:new 0 0 555 34;" xml:space="preserve">
<style type="text/css">
	.st0{fill:#FFFFFF;}
	.st1{fill:#FF2734;}
</style>
<g>
	<g>
		<path class="st0" d="M74.7,2.9c1.6,0,3.1,0,4.7,0c1.7,4.3,3.4,8.6,5.1,13c0.1,0,0.1,0,0.2,0c0-4.3,0-8.5,0-12.9c1.9,0,3.6,0,5.4,0
			c0,9.3,0,18.6,0,28c-1.6,0-3,0-4.7,0c-1.7-4.4-3.4-8.8-5.2-13.2c-0.1,0-0.1,0-0.2,0c0,4.4,0,8.8,0,13.2c-1.9,0-3.6,0-5.4,0
			C74.7,21.7,74.7,12.4,74.7,2.9z M54.2,3.5c-1.6-0.8-3.2-0.9-4.9-0.8C45.6,3,43.1,5.6,43,9.3C43,14.6,43,19.8,43,25.1
			c0,3.5,1.9,5.5,5.3,6.1c0.8,0.1,1.6,0.2,2.4,0.1c4.2-0.1,6.6-2.6,6.6-6.8c0-2.7,0-5.5,0-8.2c0-0.3,0-0.6-0.1-0.9
			c-2.4,0-4.7,0-7.1,0c0,1.6,0,3.1,0,4.7c0.6,0,1.2,0.1,1.8,0.1c0,1.5,0.1,2.9,0,4.3c0,0.5-0.5,1.1-1,1.3c-1.3,0.7-2.4-0.1-2.4-1.7
			c0-4.7,0-9.3,0-14c0-0.3,0.1-0.7,0.1-1c0.2-0.8,0.6-1.3,1.5-1.4c0.9-0.1,1.4,0.4,1.7,1.2c0.2,0.5,0.3,1.1,0.5,1.7
			c1.7-0.3,3.4-0.6,5.1-0.9C57.8,7.1,56.6,4.6,54.2,3.5z M93.3,31c4.3,0,8.4,0,12.7,0c0-1.7,0-3.4,0-5.1c-2.4,0-4.8,0-7.3,0
			c0-2.2,0-4.2,0-6.4c2.2,0,4.3,0,6.4,0c0-1.8,0-3.5,0-5.3c-2.1,0-4.2,0-6.4,0c0-2.1,0-4,0-6c2.5,0,4.8,0,7.3,0c0-1.8,0-3.4,0-5.2
			c-4.3,0-8.5,0-12.7,0C93.3,12.4,93.3,21.7,93.3,31z M59.9,3c0,9.4,0,18.7,0,28c4.3,0,8.5,0,12.7,0c0-1.7,0-3.4,0-5.2
			c-2.5,0-4.8,0-7.3,0c0-2.2,0-4.2,0-6.5c2.2,0,4.3,0,6.3,0c0-1.8,0-3.5,0-5.2c-2.1,0-4.2,0-6.3,0c0-2.1,0-4,0-6.1
			c2.5,0,4.9,0,7.2,0c0-1.8,0-3.4,0-5.1C68.3,3,64.1,3,59.9,3z M142.5,31c4.3,0,8.5,0,12.7,0c0-1.7,0-3.4,0-5.2c-2.5,0-4.8,0-7.4,0
			c0-7.7,0-15.3,0-22.9c-1.9,0-3.6,0-5.4,0C142.5,12.4,142.5,21.7,142.5,31z M119.9,19.4c0.9-1.6,1.9-2.9,2.4-4.2
			c0.8-2.3,0.8-4.7,0.2-7.1c-0.7-2.7-2.3-4.6-5.1-4.8c-2.9-0.3-5.9-0.2-8.8-0.2c-0.1,0-0.1,0.1-0.2,0.2c0,9.2,0,18.5,0,27.8
			c1.9,0,3.6,0,5.4,0c0-3.6,0-7.2,0-10.8c0.4,0,0.7,0,1.1,0c1.1,3.6,3.3,10.8,3.3,10.8h5.6C123.8,31,120.9,22.7,119.9,19.4z
			 M113.7,8.2c1.4-0.2,2.6-0.1,3.3,1.1c0.8,1.4,0.8,2.9,0,4.4c-0.7,1.2-1.9,1.3-3.2,1.1C113.7,12.6,113.7,10.4,113.7,8.2z M123.5,31
			h5.8c0,0,0.6-3.6,0.9-5.4c1.4,0,2.7,0,4.1,0c0.3,1.8,0.6,3.6,0.9,5.4c1.9,0,3.8,0,5.7,0c-1.8-9.4-3.6-18.7-5.4-28
			c-2.3,0-4.4,0-6.7,0C127.2,12,123.5,31,123.5,31z M132.5,10.5c0.4,3.2,0.7,6.5,1.1,9.8c-0.9,0-1.6,0-2.5,0
			c0.4-3.3,0.8-6.6,1.1-9.8C132.3,10.5,132.4,10.5,132.5,10.5z"/>
		<path class="st0" d="M227.5,3c1.7,0,3.3,0,5.1,0c1.5,4.3,3.1,8.6,4.8,13.2c1.6-4.6,3.2-8.9,4.8-13.2c1.7,0,3.4,0,5.1,0
			c0,9.3,0,18.6,0,28c-1.8,0-3.5,0-5.4,0c0-4.2,0-8.4,0-12.6c-0.1,0-0.2,0-0.3-0.1c-0.8,2.4-1.5,4.7-2.3,7.1c-1.3,0-2.4,0-3.7,0
			c-0.8-2.5-1.6-5-2.4-7.4c-0.1,0-0.2,0-0.3,0c0,4.3,0,8.5,0,12.9c-1.9,0-3.7,0-5.5,0C227.5,21.6,227.5,12.3,227.5,3z M224.6,19.4
			c0-1.8,0-3.5,0-5.3c-2.1,0-4.2,0-6.3,0c0-2,0-3.9,0-6c2.5,0,4.8,0,7.2,0c0-1.8,0-3.5,0-5.2c-4.3,0-8.5,0-12.8,0c0,9.4,0,18.7,0,28
			c4.3,0,8.5,0,12.8,0c0-1.7,0-3.4,0-5.2c-2.5,0-4.8,0-7.3,0c0-2.2,0-4.2,0-6.4C220.4,19.4,222.5,19.4,224.6,19.4z M195.9,24
			c-0.4,3.5,1.8,6.5,5.1,7.1c1.2,0.2,2.5,0.2,3.8,0.1c3-0.4,4.8-2,5.3-5c0.3-1.8,0.3-3.6,0.3-5.4c0-2.6-1.3-4.5-3.6-5.7
			c-1-0.5-2-0.9-3-1.4c-2.1-1-2.6-2-2.2-4.2c0.2-1,0.8-1.6,1.6-1.6c0.9,0,1.5,0.5,1.7,1.5c0.1,0.4,0.2,0.9,0.2,1.4
			c1.8-0.4,3.5-0.8,5.1-1.1c0.4-3-1.4-5.9-4.2-6.7c-1.3-0.3-2.8-0.4-4.2-0.3c-3,0.3-4.9,2-5.5,5c-0.3,1.5-0.3,3-0.3,4.5
			c0,2.1,1.1,3.8,2.8,4.9c1.1,0.7,2.3,1.3,3.5,1.9c2.4,1.1,3.3,3.6,2.2,6c-0.3,0.7-0.8,1-1.5,1c-0.8,0-1.3-0.4-1.5-1.2
			c-0.1-0.6-0.2-1.1-0.4-1.9C199.4,23.4,197.6,23.7,195.9,24z M189,2.9c-1.2-0.2-2.4-0.2-3.6-0.1c-2.9,0.4-4.8,2.1-5.4,4.9
			c-0.3,1.2-0.3,2.5-0.3,3.8c0,2.7,1.2,4.8,3.5,6.1c1.1,0.7,2.4,1.1,3.5,1.8c0.7,0.4,1.5,1,1.7,1.7c0.3,1.2,0.1,2.6,0,3.9
			c-0.1,0.7-0.7,1.2-1.5,1.1c-0.8,0-1.3-0.4-1.5-1.2c-0.1-0.6-0.3-1.2-0.4-1.9c-1.8,0.3-3.6,0.7-5.3,1c-0.2,3.6,1.7,6.4,5,7
			c1.3,0.2,2.8,0.2,4.1,0.1c2.7-0.3,4.5-1.9,4.9-4.5c0.4-2.1,0.3-4.2,0.3-6.3c0-2.3-1.3-4-3.4-5.1c-1-0.6-2.2-1-3.3-1.5
			c-1.9-0.9-2.4-1.9-2.1-3.9c0.2-1.2,0.8-1.8,1.7-1.8c0.9,0,1.5,0.6,1.7,1.8c0.1,0.4,0.1,0.7,0.2,1.2c1.8-0.4,3.5-0.8,5.2-1.1
			C194.4,6.5,192.1,3.4,189,2.9z M288.7,20.5c0-0.6,0.1-1.2,0.3-1.8c1.5-4.8,3.1-9.6,4.7-14.4c0.1-0.4,0.2-0.8,0.3-1.3
			c-2,0-3.8,0-5.7,0c-0.7,3.4-1.5,6.7-2.2,10c-0.1,0-0.2,0-0.2,0c-0.8-3.3-1.6-6.7-2.3-9.9c-2,0-3.9,0-5.8,0
			c0.1,0.4,0.1,0.6,0.2,0.8c1.5,4.6,3.1,9.2,4.5,13.9c0.4,1.2,0.6,2.5,0.6,3.7c0.1,2.8,0,5.6,0,8.4c0,0.4,0.1,0.8,0.1,1.2
			c1.9,0,3.6,0,5.5,0C288.7,27.4,288.6,23.9,288.7,20.5z M267.4,3c0,9.4,0,18.7,0,28c4.3,0,8.5,0,12.7,0c0-1.7,0-3.4,0-5.1
			c-2.4,0-4.8,0-7.3,0c0-7.7,0-15.2,0-22.9C270.9,3,269.2,3,267.4,3z M264,12c0.1-1.3,0.1-2.6-0.2-3.9c-0.6-3-2.6-4.8-5.6-5
			c-2.5-0.2-4.9-0.1-7.4-0.1c-0.1,0-0.3,0.1-0.4,0.1c0,9.3,0,18.6,0,28.2c2.9-0.1,5.8-0.1,8.7-0.4c2.6-0.3,4.2-2.1,4.9-4.7
			c0.2-0.9,0.4-1.9,0.4-2.9c0.1-2.8-0.2-5.4-3.3-6.9C262.9,15.3,263.8,13.8,264,12z M255.8,25.7c0-2.3,0-4.5,0-6.7
			c2.1-0.4,3.1,0.3,3.3,2.4c0,0.6,0,1.2,0,1.8C258.9,25.2,258,26,255.8,25.7z M255.8,13.6c0-1.7,0-3.5,0-5.3c1-0.3,1.9-0.2,2.6,0.6
			c0.7,0.7,0.7,2.9,0.1,3.8C257.9,13.6,257.1,13.9,255.8,13.6z M172.9,30.9h5.7c0,0-3.6-18.7-5.3-28c-2.3,0-4.5,0-6.7,0
			c-1.8,9.4-5.3,28-5.3,28h5.8l0.9-5.4h4.1L172.9,30.9z M171.2,20.4c-0.9,0-1.6,0-2.5,0c0.4-3.3,0.7-6.6,1.1-9.9c0.1,0,0.2,0,0.3,0
			C170.5,13.7,170.8,17,171.2,20.4z"/>
	</g>
	<g>
		<path class="st1" d="M28.7,30c-0.5,0.4-0.9,0.7-1.4,1.1c-0.5-0.5-1.1-0.8-1.8-0.4c-0.6,0.4-0.7,1-0.5,1.7
			c-0.6,0.2-1.1,0.5-1.6,0.7c-0.4-0.6-0.8-1-1.5-0.8c-0.7,0.2-1,0.8-1,1.5c-0.6,0.1-1.1,0.2-1.7,0.2c-1-1.7-1.8-1.7-2.8,0
			c-0.5-0.1-1.1-0.2-1.7-0.3c0-0.8-0.3-1.4-1.1-1.5c-0.7-0.1-1.1,0.3-1.5,0.8c-0.5-0.2-1.1-0.4-1.6-0.7c0.2-0.8,0.1-1.4-0.6-1.8
			c-0.6-0.3-1.2-0.1-1.7,0.4c-0.5-0.4-0.9-0.7-1.4-1.1c0.4-0.7,0.4-1.3-0.1-1.8c-0.5-0.5-1.1-0.4-1.7-0.1c-0.4-0.5-0.7-0.9-1.1-1.4
			c0.5-0.5,0.8-1.1,0.4-1.8c-0.4-0.6-1-0.7-1.7-0.6c-0.2-0.5-0.4-1.1-0.7-1.6c0.6-0.4,1-0.9,0.8-1.6c-0.2-0.7-0.8-1-1.5-1
			c-0.1-0.6-0.1-1.1-0.2-1.7c1.6-0.6,1.6-2.2,0-2.8c0.1-0.5,0.1-1.1,0.2-1.6c1.8-0.7,2.1-1.6,0.7-2.7c0.2-0.5,0.4-1,0.6-1.6
			C3.3,9.8,4,9.7,4.3,9c0.3-0.6,0.1-1.2-0.4-1.7C4.3,6.9,4.6,6.4,5,5.9c0.7,0.3,1.3,0.5,1.8-0.1C7.3,5.3,7.2,4.7,6.9,4
			c0.5-0.4,0.9-0.7,1.4-1.1C8.8,3.4,9.3,3.7,10,3.3c0.7-0.4,0.8-1,0.6-1.7c0.6-0.2,1.1-0.5,1.6-0.7c0.4,0.6,0.8,1,1.6,0.8
			c0.7-0.2,1-0.8,1-1.5c0.6-0.1,1.1-0.2,1.7-0.3c0.2,0.7,0.6,1.2,1.3,1.2c0.8,0,1.1-0.5,1.4-1.2c0.6,0.1,1.2,0.2,1.7,0.3
			c0,0.7,0.3,1.3,1,1.5c0.7,0.2,1.2-0.2,1.6-0.8c0.5,0.2,1.1,0.5,1.6,0.7c-0.2,0.7-0.1,1.4,0.6,1.7c0.6,0.4,1.2,0.1,1.7-0.4
			c0.5,0.4,0.9,0.7,1.4,1.1c-0.4,0.7-0.4,1.3,0.1,1.8c0.5,0.5,1.1,0.4,1.7,0c0.4,0.5,0.7,0.9,1.1,1.4c-0.5,0.6-0.8,1.1-0.4,1.8
			c0.4,0.6,1,0.7,1.7,0.5c0.2,0.5,0.4,1.1,0.7,1.6c-0.6,0.4-1,0.9-0.8,1.6c0.2,0.7,0.8,1,1.5,1c0.1,0.6,0.2,1.1,0.2,1.7
			c-0.7,0.3-1.2,0.6-1.2,1.4c0,0.7,0.5,1.1,1.2,1.3c-0.1,0.6-0.1,1.1-0.2,1.7c-0.8,0.1-1.4,0.3-1.5,1.1c-0.1,0.7,0.3,1.1,0.8,1.5
			c-0.2,0.5-0.4,1.1-0.7,1.6c-0.7-0.2-1.4-0.1-1.7,0.6c-0.4,0.7-0.1,1.2,0.4,1.7c-0.4,0.5-0.7,0.9-1.1,1.4c-0.6-0.3-1.3-0.5-1.8,0.1
			C28.3,28.7,28.4,29.3,28.7,30z"/>
		<path class="st0" d="M16.6,13.7c-0.9,0-1.8,0-2.7,0c0-0.3,0-0.6,0-0.8c0-0.7,0-1.5,0-2.2c0-0.4-0.1-0.7-0.5-0.9
			c-0.4-0.2-0.8,0-1,0.5c-0.1,0.3-0.1,0.6-0.1,0.8c0,4.1,0,8.1,0,12.2c0,0.2,0,0.4,0,0.5c0.1,0.4,0.3,0.6,0.7,0.6
			c0.4,0,0.8-0.2,0.8-0.6c0-1.2,0-2.4,0-3.7c-0.3-0.1-0.5-0.1-0.9-0.2c0-0.8,0-1.6,0-2.4c1.2,0,2.4,0,3.7,0c0,0.2,0.1,0.5,0.1,0.7
			c0,1.7,0,3.5,0,5.2c0,0.4,0,0.8-0.1,1.2c-0.3,1.3-1.1,2.3-2.5,2.5c-0.7,0.1-1.5,0.1-2.3,0c-1.3-0.2-2.1-1.2-2.3-2.6
			c0-0.3,0-0.5,0-0.8c0-4.3,0-8.6,0-12.9c0-0.5,0-0.9,0.2-1.4c0.4-1.4,1.5-2.3,3-2.4c0.5,0,1,0,1.4,0.1c1.4,0.2,2.2,1.1,2.6,2.4
			C16.8,10,16.8,13,16.6,13.7z M23.3,7c-1.2,0-2.3,0-3.4,0c-0.9,6.6-1.7,13.2-2.6,19.9c1.1,0,2,0,3,0c0.2-1.6,0.4-3.2,0.6-4.8
			c0.5,0,1,0,1.5,0c0.2,1.6,0.4,3.2,0.6,4.8c1,0,1.9,0,3,0C25,20.3,24.2,13.7,23.3,7z M22.7,18.5c0,0.6-0.5,1.1-1.1,1.1
			c-0.6,0-1.1-0.5-1.1-1.1c0-0.6,0.5-1.1,1-1.1C22.2,17.4,22.6,17.9,22.7,18.5z"/>
	</g>
</g>
<g>
	<g>
		<path class="st0" d="M359.5,22.8c0,2.9,0,5.9,0,8.9c-1.2,0-2.4,0-3.6,0c0-6.2,0-12.4,0-18.6c1.1,0,2.1,0,3.2,0
			c1.1,2.9,2.3,5.8,3.4,8.7c0,0,0.1,0,0.1,0c0-2.9,0-5.8,0-8.7c1.2,0,2.4,0,3.6,0c0,6.2,0,12.4,0,18.6c-1,0-2,0-3.1,0
			C362,28.7,360.8,25.7,359.5,22.8C359.6,22.7,359.6,22.7,359.5,22.8z M392.8,31.6c1.2,0,2.4,0,3.6,0c0-3,0-5.9,0-8.9c0,0,0,0,0.1,0
			c1.2,3,2.3,6,3.5,8.9c1.1,0,2.1,0,3.1,0c0-6.2,0-12.4,0-18.5c-1.2,0-2.3,0-3.5,0c0,2.9,0,5.8,0,8.7c0,0-0.1,0-0.1,0
			c-1.2-2.9-2.3-5.8-3.5-8.7c-1.1,0-2.1,0-3.2,0C392.8,19.3,392.8,25.5,392.8,31.6z M369.5,31.7c1.5,0,3.1,0.1,4.6,0
			c2.1-0.1,3.4-1.3,3.7-3.4c0.2-1.2,0.2-2.4,0.2-3.6c0-2.7,0-5.3-0.1-8c-0.1-2.3-1.3-3.4-3.5-3.5c-1.4-0.1-2.8,0-4.1,0
			c-0.4,0-0.9,0-1.3,0c0,6.2,0,12.4,0,18.6C369.1,31.7,369.3,31.7,369.5,31.7z M372.6,16.6c1-0.3,1.7,0.1,1.9,1.1c0,0.2,0,0.3,0,0.5
			c0,2.7,0,5.5,0,8.2c0,1.4-0.4,1.8-1.9,1.7C372.6,24.3,372.6,20.4,372.6,16.6z M320.2,28c0.2,1.2,0.4,2.4,0.6,3.6
			c1.3,0,2.6,0,3.8,0c-1.2-6.2-2.4-12.4-3.5-18.6c-1.5,0-3,0-4.5,0c-1.2,6.2-2.4,12.4-3.5,18.6c1.3,0,2.6,0,3.9,0
			c0.2-1.2,0.4-2.4,0.6-3.6C318.4,28,319.3,28,320.2,28z M319.6,24.5c-0.5,0-1.1,0-1.7,0c0.3-2.2,0.5-4.4,0.8-6.7c0,0,0.1,0,0.1,0
			C319.2,20.1,319.4,22.3,319.6,24.5z M383.5,31.6c0.2-1.2,0.4-2.4,0.6-3.6c0.9,0,1.8,0,2.7,0c0.2,1.2,0.4,2.4,0.6,3.6
			c1.3,0,2.5,0,3.8,0c-1.2-6.2-2.4-12.4-3.5-18.6c-1.5,0-3,0-4.5,0c-1.2,6.2-2.4,12.4-3.5,18.6C381,31.6,382.3,31.6,383.5,31.6z
			 M385.4,17.9c0,0,0.1,0,0.1,0c0.2,2.2,0.5,4.4,0.7,6.7c-0.6,0-1.1,0-1.7,0C384.9,22.3,385.2,20.1,385.4,17.9z M349.1,16.5
			c1.6,0,3.2,0,4.8,0c0-1.2,0-2.3,0-3.4c-2.9,0-5.7,0-8.5,0c0,6.2,0,12.4,0,18.5c2.9,0,5.7,0,8.5,0c0-1.2,0-2.3,0-3.5
			c-1.6,0-3.2,0-4.8,0c0-1.4,0-2.8,0-4.2c1.4,0,2.8,0,4.2,0c0-1.2,0-2.3,0-3.5c-1.4,0-2.8,0-4.2,0C349.1,19.1,349.1,17.8,349.1,16.5
			z M417.2,31.6c2.8,0,5.7,0,8.5,0c0-1.2,0-2.3,0-3.5c-1.6,0-3.2,0-4.8,0c0-1.4,0-2.8,0-4.2c1.4,0,2.8,0,4.2,0c0-1.2,0-2.3,0-3.5
			c-1.4,0-2.8,0-4.2,0c0-1.3,0-2.6,0-3.9c1.6,0,3.2,0,4.8,0c0-1.2,0-2.3,0-3.4c-2.8,0-5.6,0-8.5,0C417.2,19.3,417.2,25.4,417.2,31.6
			z M412.6,13.2c-1.3-0.4-2.6-0.4-3.9-0.1c-1.4,0.3-2.3,1.2-2.7,2.5c-0.2,0.7-0.4,1.4-0.4,2.1c0,2.8,0,5.7,0,8.5c0,0.6,0,1.2,0,1.7
			c0.2,2,1.2,3.4,3.1,3.7c0.8,0.1,1.6,0.2,2.4,0.1c2.9-0.2,4-2.7,4-4.9c-1.2-0.2-2.3-0.3-3.5-0.5c0,0.3-0.1,0.5-0.1,0.7
			c-0.1,0.2-0.1,0.5-0.3,0.7c-0.3,0.4-0.7,0.6-1.2,0.5c-0.5-0.1-0.6-0.5-0.7-0.9c0-0.2,0-0.3,0-0.5c0-3,0-5.9,0-8.9
			c0-0.2,0-0.5,0.1-0.7c0.1-0.6,0.4-0.9,0.9-0.9c0.6-0.1,0.9,0.1,1.2,0.7c0.2,0.4,0.2,0.8,0.4,1.2c1.1-0.2,2.2-0.4,3.4-0.6
			C415.4,15.7,414.3,13.8,412.6,13.2z M323.9,13.1c0,1.2,0,2.3,0,3.4c1,0,1.9,0,2.8,0c0,5.1,0,10.1,0,15.1c1.2,0,2.4,0,3.6,0
			c0-5,0-10.1,0-15.1c1,0,1.9,0,2.8,0c0-1.2,0-2.3,0-3.4C330.1,13.1,327,13.1,323.9,13.1z M341.1,16.5c1,0,1.9,0,2.8,0
			c0-1.2,0-2.3,0-3.4c-3.1,0-6.2,0-9.3,0c0,1.2,0,2.3,0,3.4c1,0,1.9,0,2.8,0c0,5.1,0,10.1,0,15.1c1.2,0,2.4,0,3.7,0
			C341.1,26.6,341.1,21.6,341.1,16.5z"/>
		<path class="st0" d="M442.7,13c1.2,0,2.3,0,3.4,0c0,6.2,0,12.4,0,18.6c-1.2,0-2.4,0-3.6,0c0-2.9,0-5.7,0-8.6c0,0-0.1,0-0.1,0
			c-0.5,1.6-1,3.3-1.6,4.9c-0.8,0-1.6,0-2.5,0c-0.5-1.7-1.1-3.3-1.6-5c0,0-0.1,0-0.1,0c0,2.9,0,5.8,0,8.7c-1.2,0-2.4,0-3.6,0
			c0-6.2,0-12.3,0-18.6c1.1,0,2.2,0,3.4,0c1,2.9,2.1,5.7,3.1,8.7C440.6,18.8,441.7,15.9,442.7,13z M517.2,23c0,0,0.1,0,0.1,0
			c0,2.9,0,5.7,0,8.6c1.2,0,2.4,0,3.6,0c0-6.2,0-12.4,0-18.6c-1.1,0-2.2,0-3.4,0c-1,2.9-2.1,5.7-3.2,8.7c-1.1-3-2.1-5.9-3.1-8.7
			c-1.2,0-2.3,0-3.4,0c0,6.2,0,12.4,0,18.5c1.2,0,2.4,0,3.6,0c0-2.9,0-5.8,0-8.7c0,0,0.1,0,0.1,0c0.5,1.7,1.1,3.4,1.6,5.1
			c0.8,0,1.6,0,2.5,0C516.1,26.3,516.7,24.6,517.2,23z M537.6,22.7C537.6,22.7,537.6,22.7,537.6,22.7c1.2,3,2.4,5.9,3.5,8.9
			c1.1,0,2.1,0,3.1,0c0-6.2,0-12.4,0-18.6c-1.2,0-2.3,0-3.6,0c0,2.9,0,5.8,0,8.7c0,0-0.1,0-0.1,0c-1.1-2.9-2.3-5.8-3.4-8.7
			c-1.1,0-2.2,0-3.2,0c0,6.2,0,12.4,0,18.6c1.2,0,2.4,0,3.6,0C537.6,28.6,537.6,25.7,537.6,22.7z M460.7,31.6c1.2,0,2.4,0,3.6,0
			c0-3,0-5.9,0-8.9c0,0,0,0,0.1,0c1.2,3,2.3,6,3.5,8.9c1.1,0,2.1,0,3.1,0c0-6.2,0-12.4,0-18.5c-1.2,0-2.3,0-3.5,0c0,2.9,0,5.8,0,8.7
			c0,0,0,0-0.1,0c-1.2-2.9-2.3-5.8-3.5-8.7c-1.1,0-2.1,0-3.2,0C460.7,19.3,460.7,25.4,460.7,31.6z M494.2,14.2c-1-1-2.2-1.4-3.6-1.4
			c-2.8-0.1-4.9,1.6-4.9,4.4c-0.1,3.5-0.1,7,0,10.5c0,2.3,1.3,3.6,3.5,4c0.8,0.1,1.5,0.1,2.3,0c1.9-0.2,3.2-1.4,3.6-3.2
			c0.1-0.4,0.1-0.9,0.1-1.4c0-1.8,0-3.6,0-5.4c0-0.2,0-0.3,0-0.5c-1.7,0-3.3,0-4.9,0c0,1.1,0,2.1,0,3.1c0.4,0,0.8,0,1.2,0
			c0,1,0,2,0,3c0,0.4-0.3,0.6-0.7,0.8c-1,0.4-1.6-0.1-1.6-1.1c0-3.1,0-6.2,0-9.3c0-0.2,0-0.4,0.1-0.6c0.1-0.5,0.5-0.8,0.9-0.9
			c0.6-0.1,0.9,0.1,1.2,0.7c0.2,0.4,0.2,0.8,0.4,1.2c1.1-0.2,2.2-0.4,3.5-0.6C495.3,16.4,495.1,15.2,494.2,14.2z M505.9,31.6
			c0-1.2,0-2.3,0-3.5c-1.6,0-3.2,0-4.8,0c0-1.4,0-2.8,0-4.2c1.4,0,2.8,0,4.2,0c0-1.2,0-2.3,0-3.5c-1.4,0-2.8,0-4.2,0
			c0-1.3,0-2.6,0-4c1.6,0,3.2,0,4.8,0c0-1.2,0-2.3,0-3.4c-2.8,0-5.7,0-8.5,0c0,6.2,0,12.3,0,18.5C500.3,31.6,503.1,31.6,505.9,31.6z
			 M523.5,13.1c0,6.2,0,12.4,0,18.5c2.8,0,5.7,0,8.5,0c0-1.2,0-2.3,0-3.5c-1.6,0-3.2,0-4.8,0c0-1.4,0-2.8,0-4.2c1.4,0,2.8,0,4.2,0
			c0-1.2,0-2.3,0-3.5c-1.4,0-2.8,0-4.2,0c0-1.3,0-2.6,0-3.9c1.6,0,3.2,0,4.8,0c0-1.1,0-2.3,0-3.4C529.2,13.1,526.4,13.1,523.5,13.1z
			 M545.7,13.1c0,1.2,0,2.3,0,3.4c1,0,1.9,0,2.8,0c0,5.1,0,10.1,0,15.1c1.2,0,2.4,0,3.7,0c0-5.1,0-10.1,0-15.1c1,0,1.9,0,2.8,0
			c0-1.2,0-2.3,0-3.4C551.9,13.1,548.8,13.1,545.7,13.1z M472.5,31.6c1.3,0,2.6,0,3.9,0c0.2-1.2,0.4-2.4,0.6-3.6c0.9,0,1.8,0,2.7,0
			c0.2,1.2,0.4,2.4,0.6,3.6c1.3,0,2.5,0,3.8,0c-1.2-6.2-2.4-12.4-3.5-18.6c-1.5,0-2.9,0-4.5,0C474.8,19.3,473.7,25.4,472.5,31.6z
			 M477.4,24.5c0.3-2.2,0.5-4.5,0.8-6.7c0,0,0.1,0,0.1,0c0.2,2.2,0.5,4.4,0.7,6.7C478.5,24.5,478,24.5,477.4,24.5z M459.1,31.6
			c-1.2-6.2-2.4-12.4-3.5-18.6c-1.5,0-3,0-4.5,0c-1.2,6.2-2.4,12.4-3.5,18.6c1.3,0,2.6,0,3.9,0c0.2-1.2,0.4-2.4,0.6-3.6
			c0.9,0,1.8,0,2.7,0c0.2,1.2,0.4,2.4,0.6,3.6C456.6,31.6,457.8,31.6,459.1,31.6z M454.2,24.5c-0.6,0-1.1,0-1.7,0
			c0.3-2.2,0.5-4.5,0.8-6.7c0,0,0.1,0,0.1,0C453.7,20.1,453.9,22.3,454.2,24.5z"/>
	</g>
	<polygon class="st0" points="302.5,31.6 301.1,31.6 304.7,13.1 306.1,13.1 	"/>
</g>
</svg>
